<svg xmlns:xlink="http://www.w3.org/1999/xlink" xmlns="http://www.w3.org/2000/svg" viewBox="0 0 424.39 287.26" aria-label="Multiversus" focusable="true" role="img" width="424.39"  height="287.26" ><path d="M32.88,143.89,0,253.81,164.89,241.6l28.67,45.66,4.83-239.91L28.47,34.74ZM68.82,64.41l39.07,2.89,4,116.11L146.67,70.18l34.53,2.56-18.86,142.5L137,217.12l12.59-95-31.81,96.4-21.2,1.58-5.47-97.88L78,221.5l-25.28,1.87,18.88-143ZM424.39,34.32,260,46.53,235.29,0,227.2,206.41l-.16,4.15L261.87,73l34.05-2.52L249.14,243.09l151.28,11.14-4-108.46ZM380,69.69,373.72,117h-26l3.67-27.7a5.77,5.77,0,0,0-5.7-6.5h-.43l-5.42.41a5.77,5.77,0,0,0-5.27,5l-4.82,36.51a4.34,4.34,0,0,0,1.23,3.64A5.69,5.69,0,0,0,335,129.9h21.88l13.29,13.41-10,75.73-6.9,4.54-56.93-4.24-4.46-5.42,6.33-47.76h26l-4.37,33a5.76,5.76,0,0,0,5.27,6.48l5.3.39.43,0a5.76,5.76,0,0,0,5.7-5L343,152.33a4.46,4.46,0,0,0-1.27-3.4,4.21,4.21,0,0,0-3.39-1.57H315.8l-13.31-13.42,7.86-59.46,7.46-5.55L374.9,64.7l4.93,4.59.14.2Z" style="" fill="#FB0000"></path></svg>